<?xml version="1.0" encoding="UTF-8" standalone="no"?>
<!-- Created with Inkscape (http://www.inkscape.org/) -->
<svg
   xmlns:dc="http://purl.org/dc/elements/1.1/"
   xmlns:cc="http://web.resource.org/cc/"
   xmlns:rdf="http://www.w3.org/1999/02/22-rdf-syntax-ns#"
   xmlns:svg="http://www.w3.org/2000/svg"
   xmlns="http://www.w3.org/2000/svg"
   xmlns:sodipodi="http://sodipodi.sourceforge.net/DTD/sodipodi-0.dtd"
   xmlns:inkscape="http://www.inkscape.org/namespaces/inkscape"
   id="svg2"
   sodipodi:version="0.32"
   inkscape:version="0.45"
   width="1944"
   height="2592"
   version="1.0"
   sodipodi:docbase="C:\My Documents\My Pictures\digcam\VITTA COM May07"
   sodipodi:docname="VITTA COM May07 013.jpg"
   sodipodi:modified="true">
  <metadata
     id="metadata7">
    <rdf:RDF>
      <cc:Work
         rdf:about="">
        <dc:format>image/svg+xml</dc:format>
        <dc:type
           rdf:resource="http://purl.org/dc/dcmitype/StillImage" />
      </cc:Work>
    </rdf:RDF>
  </metadata>
  <defs
     id="defs5" />
  <sodipodi:namedview
     inkscape:window-height="712"
     inkscape:window-width="1024"
     inkscape:pageshadow="2"
     inkscape:pageopacity="0.0"
     guidetolerance="10.0"
     gridtolerance="10.0"
     objecttolerance="10.0"
     borderopacity="1.0"
     bordercolor="#666666"
     pagecolor="#ffffff"
     id="base"
     inkscape:zoom="0.14544753"
     inkscape:cx="972"
     inkscape:cy="1296"
     inkscape:window-x="-4"
     inkscape:window-y="-4"
     inkscape:current-layer="svg2" />
  <path
     id="path2177"
     d="M -406.50393,1721.7847 C -406.50393,1401.0743 -406.25163,1319.9174 -405.25393,1319.7833 C -404.56643,1319.6909 -402.29933,1319.3397 -400.21603,1319.0028 C -397.41523,1318.55 -396.50313,1318.7245 -396.71603,1319.6724 C -396.87433,1320.3776 -396.09383,1321.4413 -394.98143,1322.0362 C -393.83813,1322.6478 -393.10933,1323.8787 -393.30473,1324.868 C -393.68463,1326.7904 -390.11343,1327.4132 -389.00393,1325.618 C -388.66403,1325.068 -388.86243,1324.618 -389.44493,1324.618 C -390.02733,1324.618 -390.50393,1324.168 -390.50393,1323.618 C -390.50393,1323.068 -388.89863,1322.618 -386.93653,1322.618 C -383.85013,1322.618 -383.45293,1322.8819 -383.99043,1324.5754 C -384.49273,1326.1582 -383.98533,1326.6952 -381.33983,1327.3807 C -379.05173,1327.9736 -377.89453,1328.9636 -377.49093,1330.6733 C -376.70243,1334.0132 -374.08273,1333.803 -373.68753,1330.368 C -373.51353,1328.8555 -372.83843,1327.6172 -372.18753,1327.6163 C -371.38473,1327.6151 -371.00393,1329.9476 -371.00393,1334.8663 C -371.00393,1341.4513 -370.82003,1342.118 -369.00393,1342.118 C -367.67983,1342.118 -366.89403,1341.3429 -366.67873,1339.8245 C -366.43553,1338.1096 -365.88903,1337.6784 -364.51283,1338.1152 C -363.50053,1338.4365 -362.39333,1338.248 -362.05243,1337.6964 C -361.64393,1337.0356 -360.59043,1337.0771 -358.96403,1337.8182 C -357.60633,1338.4368 -356.27853,1338.7259 -356.01333,1338.4607 C -355.19423,1337.6416 -355.12133,1331.2574 -355.90003,1328.5313 C -356.58773,1326.1234 -356.44003,1325.9738 -353.76443,1326.3665 C -351.97953,1326.6284 -350.41263,1326.2129 -349.63013,1325.2701 C -348.51443,1323.9257 -348.14873,1323.9732 -346.43703,1325.6849 C -343.98983,1328.1321 -343.95843,1329.5734 -346.36623,1328.9438 C -348.75383,1328.3194 -350.06603,1332.4845 -348.10083,1334.4497 C -346.99753,1335.5529 -346.38803,1335.5626 -344.69233,1334.5036 C -343.10003,1333.5092 -342.09823,1333.4772 -340.31563,1334.3638 C -335.94363,1336.5384 -323.16423,1337.4314 -317.50393,1335.958 C -314.66493,1335.2189 -313.94153,1334.5071 -313.67363,1332.1891 C -313.49203,1330.6173 -314.14473,1327.8433 -315.12403,1326.0248 C -316.73693,1323.0298 -316.75883,1322.5488 -315.35633,1320.9182 C -314.50473,1319.9281 -313.52863,1318.3305 -313.18733,1317.368 C -312.42633,1315.2221 -310.91733,1315.0982 -310.14233,1317.118 C -309.82573,1317.943 -309.10263,1318.618 -308.53533,1318.618 C -307.21153,1318.618 -307.18583,1314.9326 -308.50393,1314.118 C -310.23673,1313.0471 -309.59073,1311.618 -307.37393,1311.618 C -305.44093,1311.618 -305.29073,1311.2016 -305.75103,1307.1185 C -306.35393,1301.7689 -307.89543,1299.618 -311.12643,1299.618 C -312.43403,1299.618 -313.50393,1299.168 -313.50393,1298.618 C -313.50393,1298.068 -312.63663,1297.618 -311.57653,1297.618 C -310.51643,1297.618 -308.77813,1296.5108 -307.71363,1295.1575 C -306.01383,1292.9966 -305.55303,1292.8616 -303.92883,1294.0493 C -302.30743,1295.2349 -302.25503,1295.6132 -303.50393,1297.118 C -304.74843,1298.6176 -304.71213,1298.9926 -303.21623,1300.0865 C -301.20883,1301.5542 -300.97203,1306.3565 -302.71793,1310.1884 C -303.80283,1312.5695 -303.67313,1313.0626 -301.49873,1314.8233 C -299.45453,1316.4786 -298.18103,1316.6868 -293.53473,1316.1252 C -290.49273,1315.7576 -286.95243,1314.7821 -285.66713,1313.9575 C -282.21833,1311.7447 -281.87693,1313.0841 -284.95673,1316.7443 L -287.65843,1319.955 L -282.54913,1322.4688 C -277.82383,1324.7936 -277.31723,1324.8599 -275.80783,1323.3504 C -274.53293,1322.0756 -274.43313,1321.4083 -275.35163,1320.3015 C -275.99843,1319.5222 -276.45093,1318.0371 -276.35733,1317.0013 C -275.90303,1311.9768 -276.53973,1309.618 -278.35033,1309.618 C -280.83293,1309.618 -286.50393,1306.7239 -286.50393,1305.4569 C -286.50393,1304.8324 -285.01233,1304.6942 -282.62523,1305.0975 C -278.96433,1305.716 -278.68653,1305.5806 -277.67723,1302.6854 C -276.52523,1299.3807 -275.51393,1299.0071 -272.33083,1300.7106 C -270.90283,1301.4749 -269.97313,1301.4872 -269.23753,1300.7516 C -267.82093,1299.335 -259.59713,1300.5086 -256.79613,1302.527 C -255.42593,1303.5144 -254.78763,1304.7819 -255.11353,1305.868 C -255.40243,1306.8305 -255.15843,1307.618 -254.57133,1307.618 C -253.98423,1307.618 -253.50393,1306.9941 -253.50393,1306.2315 C -253.50393,1304.5457 -247.87643,1303.5471 -244.83143,1304.6924 C -241.93323,1305.7825 -239.78243,1303.4617 -241.99163,1301.6282 C -242.82343,1300.9379 -243.50393,1299.472 -243.50393,1298.3706 C -243.50393,1296.6788 -243.96963,1296.4611 -246.50393,1296.968 C -248.76403,1297.42 -249.50393,1297.2003 -249.50393,1296.0771 C -249.50393,1295.0478 -250.40193,1294.6547 -252.40433,1294.8072 C -255.99643,1295.0809 -258.69763,1292.9734 -258.30223,1290.2055 C -258.06273,1288.5296 -257.41233,1288.1821 -255.00393,1288.443 C -253.35393,1288.6217 -251.21643,1289.4789 -250.25393,1290.3479 C -247.97883,1292.4021 -247.97883,1291.0809 -250.25393,1288.7131 C -251.88373,1287.0169 -253.72683,1286.3557 -260.76613,1284.9421 C -264.35323,1284.2218 -265.14023,1282.8258 -263.10613,1280.7916 C -261.76173,1279.4472 -261.12183,1279.3755 -259.50133,1280.3875 C -256.38003,1282.3368 -255.50293,1281.8731 -256.15393,1278.618 C -256.60293,1276.3731 -256.38393,1275.618 -255.28393,1275.618 C -253.13493,1275.618 -249.95373,1279.5297 -250.31683,1281.7258 C -250.55253,1283.1517 -250.02673,1283.618 -248.18343,1283.618 C -246.57823,1283.618 -245.55743,1284.3056 -245.21423,1285.618 C -244.51193,1288.3033 -241.50393,1288.2274 -241.50393,1285.5244 C -241.50393,1284.2718 -242.30733,1283.2207 -243.50393,1282.9077 C -244.60393,1282.6201 -245.50393,1282.024 -245.50393,1281.5832 C -245.50393,1281.1423 -245.76333,1280.1056 -246.08043,1279.2794 C -246.47153,1278.2601 -245.93433,1277.6712 -244.40923,1277.4476 C -242.98763,1277.2391 -241.30823,1275.5799 -239.83953,1272.9327 C -237.71553,1269.1043 -237.65333,1268.6115 -239.11003,1267.1548 C -240.45183,1265.813 -240.49183,1265.3084 -239.36433,1263.9498 C -238.48653,1262.8921 -237.89713,1258.5695 -237.65123,1251.386 L -237.27643,1240.4346 L -234.39013,1239.4285 C -232.80273,1238.8751 -231.44773,1238.0164 -231.37893,1237.5202 C -231.31023,1237.024 -231.14383,1235.3805 -231.00923,1233.868 C -230.87463,1232.3555 -230.27843,1225.8192 -229.68433,1219.3429 C -229.09023,1212.8666 -228.86403,1205.3736 -229.18163,1202.6918 C -229.75373,1197.8609 -228.77063,1186.0179 -227.87213,1186.9165 C -227.61533,1187.1733 -227.22983,1194.9737 -227.01543,1204.2507 C -226.80113,1213.5277 -226.59833,1221.2856 -226.56483,1221.4904 C -226.53133,1221.6953 -225.80893,1221.2861 -224.95943,1220.5811 C -223.92073,1219.719 -223.61243,1218.4004 -224.01803,1216.5539 C -224.36843,1214.9586 -224.14873,1213.5165 -223.49373,1213.1117 C -222.72733,1212.638 -222.58583,1210.367 -223.05173,1206.0165 C -223.52863,1201.5633 -223.39753,1199.618 -222.62043,1199.618 C -222.00633,1199.618 -221.50393,1198.7119 -221.50393,1197.6044 C -221.50393,1196.497 -220.94143,1194.6832 -220.25393,1193.5739 C -219.22363,1191.9115 -219.26753,1191.3893 -220.50393,1190.6028 C -221.66543,1189.864 -221.38333,1189.6452 -219.25393,1189.6333 C -217.74143,1189.6249 -216.55723,1189.2805 -216.62233,1188.868 C -216.68753,1188.4555 -216.68063,1187.443 -216.60703,1186.618 C -216.48813,1185.2847 -216.36563,1185.2847 -215.50393,1186.618 C -214.67553,1187.8999 -214.53233,1187.8635 -214.51923,1186.368 C -214.51083,1185.4055 -213.85553,1184.618 -213.06293,1184.618 C -210.97453,1184.618 -210.14493,1182.7555 -211.50393,1181.118 C -213.09013,1179.2067 -211.91803,1177.618 -208.92183,1177.618 C -206.52343,1177.618 -206.50143,1177.5515 -208.09593,1175.118 C -209.43803,1173.0696 -209.47863,1172.618 -208.32043,1172.618 C -207.54293,1172.618 -205.03933,1170.8235 -202.75683,1168.6303 C -200.47433,1166.437 -198.33213,1165.087 -197.99633,1165.6303 C -196.97523,1167.2825 -194.71703,1166.7328 -194.86503,1164.868 C -194.96323,1163.631 -194.27113,1163.118 -192.50393,1163.118 C -190.45233,1163.118 -189.95593,1163.6561 -189.73613,1166.118 C -189.31523,1170.8338 -187.33173,1177.618 -186.37393,1177.618 C -185.89543,1177.618 -185.50393,1176.9981 -185.50393,1176.2404 C -185.50393,1175.4828 -184.79273,1174.2727 -183.92353,1173.5513 C -183.00383,1172.788 -182.52723,1171.2763 -182.78363,1169.9352 C -183.31353,1167.1633 -180.85663,1164.5354 -179.94833,1166.9024 C -179.62963,1167.7327 -179.47033,1169.0209 -179.59413,1169.765 C -179.88113,1171.4893 -178.47183,1174.8975 -177.07683,1175.8527 C -176.35563,1176.3465 -176.41373,1176.5924 -177.25393,1176.6027 C -177.94143,1176.6111 -178.50393,1177.518 -178.50393,1178.618 C -178.50393,1179.718 -178.16383,1180.618 -177.74803,1180.618 C -177.33233,1180.618 -176.36523,1182.0805 -175.59893,1183.868 C -173.59463,1188.5436 -172.34113,1189.9727 -171.47443,1188.5703 C -171.04243,1187.8713 -170.52803,1188.3858 -170.14893,1189.8964 C -169.28783,1193.3272 -165.94263,1194.3694 -152.00393,1195.5492 C -135.68293,1196.9306 -122.43653,1198.5416 -121.22063,1199.2931 C -120.55673,1199.7034 -120.45263,1209.4818 -120.91483,1228.0166 C -121.51353,1252.0244 -121.40013,1256.4093 -120.13613,1258.118 C -118.82883,1259.8851 -118.83113,1260.3115 -120.15523,1261.7796 C -122.26363,1264.1172 -121.53223,1269.0032 -119.00393,1269.4709 C -117.90393,1269.6744 -116.62803,1270.4945 -116.16853,1271.2933 C -115.70903,1272.0921 -114.35903,1273.1218 -113.16853,1273.5817 C -111.17543,1274.3514 -111.14763,1274.4757 -112.81773,1275.1493 C -114.08823,1275.6618 -115.07863,1275.2426 -116.12443,1273.7495 C -118.07753,1270.9609 -120.47263,1271.0241 -120.62233,1273.868 C -121.41733,1288.9755 -121.29983,1294.7171 -120.20303,1294.356 C -119.54353,1294.1389 -118.86013,1292.9841 -118.68443,1291.7897 C -118.48103,1290.4073 -117.65173,1289.618 -116.40303,1289.618 C -114.40083,1289.618 -114.12293,1289.1805 -113.06843,1284.368 C -112.58003,1282.1393 -111.91653,1281.618 -109.56823,1281.618 C -107.97453,1281.618 -106.50513,1281.1215 -106.30283,1280.5146 C -106.10053,1279.9078 -105.36043,1281.6532 -104.65813,1284.3933 L -103.38133,1289.3753 L -98.274727,1289.866 C -92.740427,1290.3978 -90.503927,1292.2715 -90.503927,1296.3765 C -90.503927,1298.3163 -90.127727,1298.6334 -88.455927,1298.1028 C -86.226228,1297.3951 -83.503928,1299.0829 -83.503928,1301.1731 C -83.503928,1301.8936 -84.403928,1302.7689 -85.503928,1303.118 C -88.417627,1304.0428 -87.950327,1305.6144 -84.753928,1305.6402 L -82.003928,1305.6625 L -84.503928,1307.6329 C -86.622327,1309.3025 -86.774927,1309.7547 -85.503928,1310.5953 C -84.678928,1311.141 -82.388628,1311.5943 -80.414428,1311.6027 C -77.548228,1311.6149 -76.595428,1311.1142 -75.685928,1309.118 C -74.829828,1307.2393 -73.733828,1306.5897 -71.275328,1306.504 C -65.347228,1306.2974 -62.697328,1305.7694 -59.631328,1304.1839 C -54.975128,1301.7761 -53.708228,1302.2042 -52.381128,1306.6337 C -51.417428,1309.85 -50.810828,1310.5328 -49.333328,1310.0638 C -48.318728,1309.7418 -44.962728,1310.6348 -41.875428,1312.0482 C -38.788228,1313.4616 -35.689728,1314.618 -34.990128,1314.618 C -33.283828,1314.618 -32.599428,1316.6666 -33.220328,1319.9147 C -34.026728,1324.1333 -32.957928,1325.9313 -30.443628,1324.5857 C -28.654328,1323.6281 -28.451128,1322.8903 -29.030928,1319.4583 C -29.601828,1316.0792 -29.380628,1315.2199 -27.623028,1313.9889 C -26.476228,1313.1856 -25.164128,1311.086 -24.707328,1309.3232 C -23.665328,1305.3017 -21.542428,1305.2174 -19.542228,1309.118 C -18.696228,1310.768 -17.910228,1312.2868 -17.795628,1312.493 C -17.504128,1313.0176 -12.516228,1312.9636 -11.982628,1312.4301 C -11.387428,1311.8348 -7.6026279,1194.2466 -6.0020279,1126.618 C -5.6831279,1113.143 -5.1760279,1100.4305 -4.8751279,1098.368 C -4.2830279,1094.309 -2.5136279,1093.1968 -2.4886279,1096.868 C -2.4802279,1098.1055 -2.0511279,1099.7856 -1.5352279,1100.6016 C -0.79022787,1101.7798 -0.29352787,1101.368 0.87727213,1098.6016 C 1.6881721,1096.6856 3.2840721,1094.5517 4.4238723,1093.8595 C 5.5635723,1093.1674 6.4960723,1091.7049 6.4960723,1090.6095 C 6.4960723,1088.7562 7.1728723,1088.6188 16.246072,1088.629 C 30.356272,1088.6449 33.496072,1089.3083 33.496072,1092.2736 C 33.496072,1093.9232 34.293672,1094.9707 36.061172,1095.6428 C 39.623072,1096.997 47.225572,1096.8646 48.110472,1095.433 C 48.799372,1094.3182 49.306472,1079.7603 51.073072,1010.368 C 51.475672,994.55551 52.129272,981.61801 52.525572,981.61801 C 53.540272,981.61801 54.863172,987.53771 54.648472,991.11801 L 54.468572,994.11801 L 56.004572,991.38651 C 57.376172,988.94731 58.078072,988.66711 62.563672,988.76821 C 66.536972,988.85771 68.102172,988.39731 70.052172,986.56531 C 71.860672,984.86631 72.185372,984.04401 71.271172,983.47901 C 70.544072,983.02961 69.685672,983.31471 69.210772,984.16341 C 68.762972,984.96341 67.384072,985.61801 66.146372,985.61801 C 64.908672,985.61801 63.431272,986.08281 62.863272,986.65081 C 62.295272,987.21881 61.102872,987.40431 60.213572,987.06311 C 58.763072,986.50651 58.648872,983.74891 59.104772,960.28031 C 59.710472,929.09431 59.697372,928.41921 58.462372,927.18421 C 56.857372,925.57921 57.346472,924.89781 60.565572,924.25401 C 62.954772,923.77621 64.007572,922.75331 65.315572,919.63921 C 66.565972,916.66211 67.571872,915.63561 69.246072,915.62811 C 70.483572,915.62251 71.502972,916.18041 71.511372,916.86791 C 71.521672,917.70811 71.767572,917.76621 72.261372,917.04501 C 73.655672,915.00871 76.688472,914.61521 79.837272,916.06221 C 81.574572,916.86051 84.525772,917.89151 86.395372,918.35331 C 90.592272,919.38981 92.719272,923.48531 89.498272,924.32761 C 86.941772,924.99611 86.889672,926.61791 89.424672,926.61791 C 92.966272,926.61791 94.782872,929.53561 94.050172,934.04701 C 93.686572,936.28601 93.416072,938.79291 93.449272,939.61791 C 93.482472,940.44291 93.486872,942.82981 93.459072,944.92221 C 93.422572,947.67641 94.041772,949.28461 95.702372,950.74841 C 96.963872,951.86041 97.524572,952.54081 96.948272,952.26021 C 94.556372,951.09531 93.553572,953.59171 92.975172,962.15071 C 91.728872,980.59371 92.300972,986.07221 95.562072,986.92501 C 97.489772,987.42911 97.804672,986.58121 98.832172,978.11801 C 99.032472,976.46801 99.263872,982.17621 99.346272,990.80291 C 99.440372,1000.653 99.068972,1007.535 98.347972,1009.3029 C 96.699672,1013.3446 94.922772,1091.2223 96.437272,1093.0471 C 97.049572,1093.7849 102.57057,1095.1611 108.71187,1096.1069 C 114.85097,1097.0522 120.51957,1098.0735 121.30877,1098.3764 C 122.53967,1098.8487 122.69067,1107.7029 122.36997,1160.6141 C 122.05467,1212.6274 122.21717,1222.5683 123.40627,1224.005 C 124.18187,1224.9422 125.48247,1225.4535 126.29647,1225.1411 C 127.11707,1224.8262 128.35347,1225.3971 129.07177,1226.4226 C 129.78427,1227.4398 135.74877,1230.644 142.32627,1233.5431 C 152.95187,1238.2265 154.34857,1239.1304 154.85247,1241.6499 C 155.31887,1243.9823 156.00317,1244.5417 158.70787,1244.8018 L 161.99607,1245.118 L 162.10007,1294.618 C 162.15727,1321.843 162.26977,1344.6533 162.35007,1345.3076 C 162.43037,1345.9619 164.18357,1346.6369 166.24607,1346.8076 C 169.67417,1347.0914 170.04577,1347.4184 170.57497,1350.618 C 171.56477,1356.6025 172.38387,1351.9016 172.90377,1337.2514 C 173.17447,1329.6248 173.53097,1323.2596 173.69597,1323.1067 C 173.86107,1322.9537 177.82107,1322.513 182.49607,1322.1273 C 187.17107,1321.7416 193.47107,1321.1318 196.49607,1320.772 L 201.99607,1320.118 L 202.49607,1307.0184 C 202.83157,1298.2284 203.43407,1293.3921 204.32747,1292.3178 C 205.15597,1291.3216 207.61117,1290.6038 210.82747,1290.4174 C 215.85467,1290.1262 216.00467,1290.0292 216.30917,1286.8715 C 216.55507,1284.3216 217.80847,1282.6588 222.15087,1279.1215 C 225.19157,1276.6446 227.97567,1274.5934 228.33777,1274.5634 C 228.69977,1274.5334 231.02107,1274.2989 233.49607,1274.0423 C 239.33787,1273.4366 240.26807,1273.4501 244.75987,1274.2064 C 250.57627,1275.1856 251.49607,1273.7991 251.49607,1264.0523 C 251.49607,1256.5873 251.72467,1255.5713 253.71857,1254.1747 C 254.94097,1253.3185 257.68007,1252.618 259.80547,1252.618 C 263.14017,1252.618 263.81797,1252.2255 264.75097,1249.7536 C 266.26687,1245.7375 269.16807,1244.2625 275.08097,1244.5017 C 278.69037,1244.6477 280.55747,1244.249 281.48237,1243.1345 C 282.55807,1241.8383 284.12817,1241.6791 290.39217,1242.231 C 294.57427,1242.5995 299.12107,1243.3393 300.49607,1243.8751 C 301.87107,1244.4109 304.83917,1245.0207 307.09187,1245.2303 L 311.18777,1245.6114 L 311.83787,1232.8647 C 312.19537,1225.854 312.48977,1211.9348 312.49197,1201.9331 C 312.49427,1191.9314 312.92267,1182.626 313.44417,1181.2545 C 314.08177,1179.5774 315.29677,1178.6556 317.15457,1178.4394 C 320.82977,1178.0118 321.27457,1176.0625 321.39637,1159.8518 L 321.49607,1146.5856 L 324.74607,1145.1748 C 326.53357,1144.3989 328.80507,1143.512 329.79387,1143.2041 C 331.25647,1142.7485 331.46877,1141.9892 330.93257,1139.1311 C 330.50007,1136.8258 330.65557,1135.618 331.38477,1135.618 C 331.99597,1135.618 332.49607,1136.7609 332.49607,1138.1578 C 332.49607,1142.9037 336.30587,1148.0962 348.91197,1160.5317 C 355.83327,1167.3593 361.49777,1173.4343 361.49977,1174.0317 C 361.50347,1175.0916 368.91127,1178.618 371.13417,1178.618 C 371.74847,1178.618 372.82077,1177.9317 373.51697,1177.0928 C 374.64667,1175.7316 374.98397,1175.7496 376.65287,1177.2599 C 377.75157,1178.2542 381.71397,1179.3989 386.25947,1180.0351 L 393.99607,1181.118 L 393.60127,1231.868 L 393.20647,1282.618 L 396.10127,1282.724 C 397.69337,1282.7822 400.26907,1282.7446 401.82487,1282.6403 C 403.38077,1282.536 405.54397,1283.2564 406.63207,1284.2411 C 408.08497,1285.556 410.91937,1286.177 417.30327,1286.5792 C 427.09197,1287.1959 428.49607,1287.7573 428.49607,1291.0546 C 428.49607,1295.127 430.22327,1295.527 447.83987,1295.5346 C 461.14507,1295.5404 464.69667,1295.2588 465.11647,1294.1648 C 465.40707,1293.4074 466.00227,1289.7121 466.43907,1285.9529 L 467.23317,1279.118 L 467.37997,1285.118 C 467.50537,1290.2473 469.15137,1296.1197 469.62237,1293.118 C 469.87227,1291.525 470.14027,1288.3777 470.32507,1284.868 C 470.59937,1279.6554 472.49607,1281.1274 472.49607,1286.5529 C 472.49607,1294.1088 473.74767,1296.5055 477.63587,1296.395 C 479.91147,1296.3303 481.30097,1296.9446 482.30747,1298.4604 C 483.45347,1300.1864 484.72897,1300.618 488.68377,1300.618 C 497.35607,1300.618 497.49607,1300.8489 497.49607,1315.1532 C 497.49607,1326.6804 497.63727,1327.618 499.37367,1327.618 C 500.40627,1327.618 501.82377,1326.928 502.52367,1326.0847 C 503.65737,1324.7188 504.02547,1324.7608 505.89617,1326.4698 C 507.05107,1327.5249 508.98557,1328.6879 510.19487,1329.0542 C 511.40427,1329.4206 512.65207,1330.5343 512.96787,1331.5291 C 513.40707,1332.913 514.99177,1333.4894 519.71397,1333.983 C 523.10857,1334.3378 526.24897,1334.2651 526.69257,1333.8215 C 527.13617,1333.3779 527.98407,1310.7631 528.57667,1283.5664 C 529.46767,1242.6816 529.90647,1233.8582 531.11047,1232.618 C 532.33427,1231.3575 537.43107,1231.0895 563.03657,1230.9393 C 579.79507,1230.841 595.90827,1230.4605 598.84377,1230.0938 C 603.18197,1229.5517 605.19337,1229.8561 609.58857,1231.7198 C 612.56267,1232.9809 615.33823,1234.4864 615.75653,1235.0653 C 616.17483,1235.6443 616.21623,1257.3805 615.84843,1283.368 C 615.39223,1315.6042 615.50763,1330.618 616.21153,1330.618 C 616.89283,1330.618 617.49233,1316.2628 617.97603,1288.368 C 618.42683,1262.3687 619.09953,1245.6372 619.72483,1244.868 C 620.28363,1244.1805 622.47003,1243.618 624.58333,1243.618 C 629.01403,1243.618 630.49603,1241.7726 630.49603,1236.2552 C 630.49603,1230.6693 632.36103,1229.62 642.31743,1229.6043 C 652.61353,1229.5881 655.23583,1229.0131 656.00053,1226.6039 C 656.73843,1224.2789 665.13103,1223.1814 679.49603,1223.5314 C 698.08183,1223.9842 698.96263,1224.087 699.30093,1225.8435 C 699.89293,1228.9172 703.98943,1230.4294 713.57593,1231.1129 C 718.75703,1231.4824 723.85413,1232.0249 724.90293,1232.3185 C 726.74913,1232.8354 726.79083,1234.0435 726.21223,1270.2128 C 725.88353,1290.761 725.95813,1307.7855 726.37793,1308.045 C 727.05283,1308.4621 728.61253,1289.6706 729.98253,1264.618 C 731.51203,1236.6486 733.42243,1224.5838 736.76053,1221.8134 C 737.49103,1221.2072 744.72483,1220.672 754.00743,1220.5375 C 762.80113,1220.4101 770.55853,1220.1029 771.24603,1219.8549 C 772.07313,1219.5566 772.49603,1217.1849 772.49603,1212.8443 C 772.49603,1205.0191 773.67153,1205.1405 773.86273,1212.9855 C 773.93603,1215.9926 774.36583,1218.8276 774.81783,1219.2855 C 775.26993,1219.7434 782.69313,1220.793 791.31393,1221.618 L 806.98813,1223.118 L 808.38443,1227.118 C 809.15253,1229.318 810.05423,1236.0632 810.38843,1242.1074 L 810.99603,1253.0968 L 816.49603,1253.8492 C 819.52103,1254.263 823.04343,1254.8476 824.32353,1255.1483 L 826.65103,1255.695 L 826.39723,1317.5917 C 826.13133,1382.4633 826.14293,1382.6535 830.36843,1382.5958 C 831.26363,1382.5835 833.12103,1381.7094 834.49603,1380.6533 L 836.99603,1378.7331 L 837.69523,1335.0291 C 838.07983,1310.9919 838.62813,1290.716 838.91383,1289.9716 C 839.25293,1289.0878 841.13723,1288.618 844.34223,1288.618 C 847.30033,1288.618 849.70713,1288.0686 850.39853,1287.2355 C 851.14023,1286.3418 851.65853,1279.4435 851.86463,1267.7252 C 852.03993,1257.7548 852.49253,1249.2881 852.87043,1248.9103 C 853.24823,1248.5325 853.51023,1256.8511 853.45263,1267.3962 C 853.39493,1277.9414 853.63273,1287.0302 853.98093,1287.5936 C 854.32913,1288.157 856.81093,1288.618 859.49603,1288.618 C 862.18113,1288.618 864.68453,1289.114 865.05913,1289.7201 C 865.43373,1290.3263 865.68293,1294.7138 865.61293,1299.4701 C 865.45943,1309.8899 866.16873,1311.5338 869.79363,1309.1586 C 871.95753,1307.7408 873.20343,1307.6474 878.03523,1308.5406 C 881.16603,1309.1194 884.23803,1309.264 884.86183,1308.8621 C 886.69873,1307.6785 890.87753,1307.8308 892.49603,1309.1404 C 893.32103,1309.8079 896.57193,1310.6047 899.72033,1310.9111 C 902.86873,1311.2175 905.90623,1311.7535 906.47033,1312.1021 C 907.12603,1312.5073 907.49603,1321.5533 907.49603,1337.177 L 907.49603,1361.618 L 911.87363,1361.618 C 914.28123,1361.618 916.68773,1361.0555 917.22143,1360.368 C 918.97723,1358.106 922.49603,1335.9915 922.49603,1327.2185 C 922.49603,1318.7049 922.52133,1318.618 925.00303,1318.618 C 927.50683,1318.618 927.50923,1318.6272 926.87533,1325.868 C 926.52633,1329.8555 925.84813,1333.5455 925.36833,1334.068 C 923.56923,1336.0273 924.47353,1340.6946 927.08793,1342.9434 C 929.78363,1345.2621 930.28993,1347.9221 929.04113,1353.2043 C 928.12083,1357.0972 930.36013,1359.618 934.73873,1359.618 C 936.44363,1359.618 938.69393,1360.3921 939.73933,1361.3382 C 941.18313,1362.6448 943.61003,1363.0871 949.83453,1363.178 C 954.34143,1363.2438 959.06923,1363.8544 960.34063,1364.5348 C 961.61203,1365.2153 963.30453,1365.5217 964.10173,1365.2158 C 964.89893,1364.9099 966.31383,1365.5502 967.24583,1366.6388 C 968.73693,1368.3803 970.20493,1368.6164 979.46823,1368.6043 C 992.95623,1368.5869 994.30593,1368.209 994.99183,1364.2578 C 995.29163,1362.5309 995.86523,1350.328 996.26643,1337.1401 L 996.99603,1313.1623 L 999.99603,1312.2413 C 1001.646,1311.7348 1004.414,1310.7124 1006.1471,1309.9692 C 1007.8803,1309.226 1010.4402,1308.618 1011.8359,1308.618 C 1014.0815,1308.618 1014.4522,1308.0936 1015.0569,1304.0611 C 1015.534,1300.8796 1016.4402,1299.0455 1018.0591,1297.9847 C 1019.3345,1297.1491 1020.5171,1295.28 1020.687,1293.8312 C 1021.0343,1290.8715 1023.339,1289.8797 1030.2461,1289.7177 L 1034.4961,1289.618 L 1034.7115,1264.368 C 1034.83,1250.4805 1034.9425,1236.1057 1034.9615,1232.424 C 1034.9805,1228.7423 1035.4461,1225.3183 1035.9961,1224.815 C 1036.8815,1224.005 1043.4038,1222.6742 1055.9961,1220.7342 C 1059.7623,1220.154 1060.0253,1219.8888 1060.4961,1216.1962 C 1060.7711,1214.0392 1061.5032,1212.1076 1062.1229,1211.9039 C 1063.76,1211.3657 1064.6554,1214.4519 1063.4925,1216.6247 C 1062.9445,1217.6487 1062.4961,1218.6886 1062.4961,1218.9356 C 1062.4961,1220.2165 1069.3634,1220.7954 1093.3089,1221.533 C 1108.1636,1221.9906 1120.0526,1222.7745 1120.6113,1223.3332 C 1121.2375,1223.9594 1121.6734,1246.3079 1121.7985,1284.203 L 1121.9961,1344.0832 L 1129.5893,1344.0178 C 1133.7655,1343.9818 1137.8582,1343.693 1138.6841,1343.3761 C 1139.8512,1342.9282 1140.3406,1340.0601 1140.8807,1330.5025 C 1141.263,1323.7389 1141.8198,1317.9605 1142.1182,1317.6615 C 1142.4165,1317.3626 1146.7042,1316.8701 1151.6462,1316.5672 C 1157.9164,1316.1829 1160.9007,1315.5813 1161.5217,1314.5766 C 1162.282,1313.3463 1162.8586,1313.4009 1165.484,1314.9518 C 1167.7688,1316.3014 1171.6897,1316.94 1180.7763,1317.4424 L 1192.9961,1318.118 L 1193.6033,1331.118 C 1193.9372,1338.268 1194.2747,1344.2657 1194.3533,1344.4462 C 1194.4318,1344.6267 1195.9586,1344.6738 1197.7461,1344.5508 C 1204.5472,1344.083 1212.4961,1344.6581 1212.4961,1345.618 C 1212.4961,1346.168 1210.5836,1346.6743 1208.2461,1346.7432 L 1203.9961,1346.8683 L 1208.4961,1347.669 C 1210.9711,1348.1094 1214.8568,1348.5031 1217.1311,1348.5439 C 1220.3618,1348.6018 1221.615,1349.1505 1222.8617,1351.0532 C 1223.9032,1352.6428 1225.5926,1353.5977 1227.7267,1353.8032 L 1230.9961,1354.118 L 1231.2672,1373.868 C 1231.4324,1385.899 1231.921,1393.618 1232.5172,1393.618 C 1233.0556,1393.618 1233.4961,1392.2838 1233.4961,1390.6532 C 1233.4961,1387.108 1235.7551,1385.6238 1241.1804,1385.6043 C 1246.9959,1385.5835 1249.2687,1384.6602 1249.9232,1382.0524 C 1250.2513,1380.7452 1251.4144,1379.1969 1252.5079,1378.6117 C 1254.5565,1377.5153 1255.2734,1374.618 1253.4961,1374.618 C 1252.9461,1374.618 1252.4961,1373.718 1252.4961,1372.618 C 1252.4961,1371.518 1253.1625,1370.618 1253.977,1370.618 C 1255.5566,1370.618 1255.7561,1369.9689 1257.5104,1359.118 C 1259.0948,1349.3182 1261.5172,1336.3879 1262.0849,1334.7008 C 1263.5469,1330.3552 1265.7734,1341.1923 1270.9315,1377.76 C 1271.4994,1381.7864 1271.9436,1382.4704 1274.2805,1382.9171 C 1275.7624,1383.2004 1277.7375,1383.024 1278.6697,1382.5251 C 1279.6019,1382.0262 1281.9692,1381.618 1283.9304,1381.618 C 1287.0228,1381.618 1287.4961,1381.935 1287.4961,1384.0067 C 1287.4961,1385.9414 1288.1562,1386.5193 1290.9689,1387.0469 C 1292.879,1387.4052 1294.8291,1388.3906 1295.3025,1389.2366 C 1296.0206,1390.5197 1296.4508,1390.3361 1297.8966,1388.1295 C 1299.259,1386.0502 1299.3754,1385.1775 1298.4406,1384.0511 C 1297.5139,1382.9345 1297.5543,1382.2508 1298.6237,1380.9554 C 1299.6936,1379.6592 1299.7206,1379.2 1298.7461,1378.872 C 1298.0586,1378.6407 1297.4961,1377.6112 1297.4961,1376.5844 C 1297.4961,1375.5575 1296.7579,1374.3043 1295.8557,1373.7994 C 1294.9535,1373.2945 1294.5346,1372.3648 1294.9248,1371.7334 C 1295.315,1371.102 1296.0003,1370.8116 1296.4477,1371.0881 C 1296.895,1371.3645 1298.386,1370.7059 1299.7609,1369.6244 C 1301.1358,1368.5429 1303.4387,1367.2101 1304.8784,1366.6627 C 1306.5306,1366.0346 1307.4961,1364.9091 1307.4961,1363.6114 C 1307.4961,1362.4805 1308.0586,1361.3502 1308.7461,1361.0995 C 1312.502,1359.7302 1331.9422,1357.828 1343.8051,1357.669 C 1345.9001,1357.641 1347.3707,1357.2242 1347.0733,1356.7429 C 1346.4457,1355.7274 1349.2953,1346.8601 1350.4856,1346.1245 C 1350.9269,1345.8518 1352.4932,1346.2539 1353.9663,1347.0182 C 1357.1239,1348.6563 1364.1969,1348.049 1366.6371,1345.9302 C 1367.7298,1344.9814 1370.2407,1344.5761 1374.1515,1344.7172 C 1379.7007,1344.9175 1382.4678,1344.0747 1386.4961,1340.9572 C 1387.3211,1340.3187 1390.5773,1339.8687 1393.7321,1339.9572 C 1398.9917,1340.1046 1399.8223,1340.4586 1403.7321,1344.2181 C 1407.9781,1348.3008 1408.0365,1348.3208 1417.5632,1348.9293 C 1422.8251,1349.2654 1427.8383,1349.8121 1428.7036,1350.1441 C 1429.7966,1350.5635 1430.4875,1352.7129 1430.9662,1357.183 C 1431.679,1363.839 1432.6527,1365.0624 1434.4961,1361.618 C 1435.0848,1360.518 1435.3662,1359.618 1435.1215,1359.618 C 1434.8767,1359.618 1435.2949,1357.0305 1436.0507,1353.868 C 1436.8065,1350.7055 1437.4941,1343.393 1437.5788,1337.618 C 1437.6635,1331.843 1438.0191,1325.768 1438.3692,1324.118 C 1438.9408,1321.4241 1439.4388,1321.0866 1443.2509,1320.8105 C 1447.2448,1320.5212 1447.4961,1320.3233 1447.4961,1317.4669 C 1447.4961,1315.2718 1448.0501,1314.2859 1449.4961,1313.9077 C 1450.7522,1313.5793 1451.4961,1312.5437 1451.4961,1311.1238 C 1451.4961,1307.8222 1453.8221,1306.416 1458.6951,1306.7715 L 1462.9961,1307.0853 L 1463.2915,1300.3625 C 1463.5392,1294.7273 1463.9269,1293.4578 1465.6882,1292.5152 C 1468.4248,1291.0506 1469.8081,1293.238 1470.4961,1300.118 L 1470.9961,1305.118 L 1478.273,1305.7679 C 1486.7536,1306.5253 1488.4961,1307.6285 1488.4961,1312.2404 C 1488.4961,1314.0981 1488.9461,1315.618 1489.4961,1315.618 C 1490.0461,1315.618 1490.4961,1314.943 1490.4961,1314.118 C 1490.4961,1313.0069 1491.6628,1312.618 1494.9961,1312.618 C 1498.8294,1312.618 1499.4961,1312.9143 1499.4961,1314.618 C 1499.4961,1318.2661 1505.5653,1322.618 1510.6529,1322.618 C 1512.6128,1322.618 1512.6683,1322.1287 1512.3378,1307.7695 C 1512.099,1297.3911 1511.5997,1292.444 1510.6792,1291.3365 C 1509.5808,1290.0147 1509.6306,1289.3423 1510.9797,1287.2833 C 1513.53,1283.3911 1514.599,1268.4477 1514.4252,1239.118 L 1514.2652,1212.118 L 1518.5088,1203.118 C 1520.8428,1198.168 1524.5382,1190.3413 1526.7208,1185.7254 C 1529.7197,1179.3831 1530.5415,1176.595 1530.085,1174.3126 C 1529.6916,1172.3457 1529.9861,1170.734 1530.9292,1169.6919 C 1532.0395,1168.465 1532.5328,1163.4274 1533.0429,1148.1048 C 1533.4089,1137.1121 1533.9497,1127.7197 1534.2447,1127.2329 C 1535.5454,1125.0867 1537.4299,1131.7091 1537.4845,1138.618 C 1537.5171,1142.743 1537.9906,1147.918 1538.5366,1150.118 C 1539.0827,1152.318 1539.6912,1157.8497 1539.8889,1162.4108 C 1540.0865,1166.9718 1540.4793,1170.9345 1540.7616,1171.2168 C 1541.2252,1171.6804 1561.6164,1173.6853 1568.9961,1173.9929 L 1571.9961,1174.118 L 1572.2596,1167.118 C 1572.4045,1163.268 1572.9323,1159.218 1573.4323,1158.118 C 1573.9324,1157.018 1574.6103,1151.732 1574.9388,1146.3713 C 1575.4995,1137.22 1576.8706,1131.618 1578.5496,1131.618 C 1580.1027,1131.618 1580.4307,1135.0768 1579.9793,1146.6927 C 1579.6989,1153.9081 1579.9563,1160.4113 1580.6216,1162.9246 C 1581.2322,1165.231 1581.6747,1168.468 1581.6048,1170.118 C 1581.5349,1171.768 1581.4455,1174.468 1581.4062,1176.118 C 1581.3621,1177.9651 1584.6238,1185.8434 1589.8933,1196.618 L 1598.452,1214.118 L 1597.6522,1239.618 C 1597.1672,1255.0807 1597.2236,1266.8893 1597.7953,1269.618 C 1598.3139,1272.093 1598.8235,1289.643 1598.9278,1308.618 C 1599.1859,1355.6009 1599.0727,1353.618 1601.4961,1353.618 C 1603.6321,1353.618 1604.2876,1351.0485 1602.319,1350.3923 C 1601.6717,1350.1765 1601.4778,1349.4567 1601.8881,1348.7927 C 1602.9012,1347.1535 1604.4961,1348.2943 1604.4961,1350.658 C 1604.4961,1352.8834 1609.6227,1354.7383 1610.2846,1352.7524 C 1610.5262,1352.0277 1612.0098,1352.7398 1614.1221,1354.5945 C 1616.0161,1356.2574 1618.45,1357.618 1619.5309,1357.618 C 1620.6118,1357.618 1621.4961,1358.0282 1621.4961,1358.5295 C 1621.4961,1359.8904 1624.317,1359.2158 1626.5222,1357.3277 C 1627.5887,1356.4145 1629.1498,1355.9316 1629.9914,1356.2546 C 1631.8101,1356.9525 1634.3948,1355.0146 1635.491,1352.1313 C 1636.1083,1350.5077 1637.2521,1350.0201 1640.8063,1349.8654 C 1643.4734,1349.7493 1647.1944,1348.6302 1649.858,1347.1431 C 1652.3457,1345.7543 1655.5319,1344.618 1656.9385,1344.618 C 1659.1136,1344.618 1659.4961,1345.0667 1659.4961,1347.618 C 1659.4961,1349.268 1659.9461,1350.618 1660.4961,1350.618 C 1661.0461,1350.618 1661.503,1350.0555 1661.5114,1349.368 C 1661.522,1348.503 1661.753,1348.4569 1662.2614,1349.2183 C 1662.6655,1349.8235 1663.9985,1350.8464 1665.2236,1351.4914 C 1667.097,1352.4778 1667.3587,1352.4235 1666.8698,1351.1496 C 1666.0928,1349.1245 1669.1017,1348.0458 1671.0401,1349.6545 C 1672.2893,1350.6912 1672.8013,1350.5828 1673.927,1349.0434 C 1674.6796,1348.0141 1675.1371,1346.35 1674.9436,1345.3453 C 1674.7501,1344.3406 1675.2452,1343.2678 1676.0439,1342.9613 C 1677.2014,1342.5171 1677.5124,1339.8381 1677.5766,1329.761 C 1677.6208,1322.8074 1678.1833,1315.0953 1678.8266,1312.623 C 1679.9503,1308.304 1680.1791,1308.0948 1684.6743,1307.278 C 1689.1025,1306.4733 1689.3788,1306.2326 1689.8456,1302.7729 C 1690.1169,1300.7627 1690.3994,1296.868 1690.4735,1294.118 C 1690.6325,1288.2117 1691.7279,1286.6572 1694.5075,1288.393 C 1697.8721,1290.4943 1704.1082,1289.915 1706.7691,1287.2541 C 1708.9707,1285.0525 1709.4852,1284.9622 1714.2586,1285.9401 C 1717.0777,1286.5176 1719.187,1287.3092 1718.9459,1287.6992 C 1717.6137,1289.8548 1726.2895,1290.2415 1729.055,1288.1498 C 1731.2923,1286.4576 1738.1956,1286.2246 1743.9961,1287.6456 C 1751.0516,1289.374 1767.6089,1289.9009 1771.7652,1288.5292 C 1774.6597,1287.5739 1775.8328,1287.5547 1776.7261,1288.448 C 1778.1678,1289.8897 1786.8808,1290.0495 1785.9961,1288.618 C 1784.6065,1286.3696 1797.7277,1288.5163 1800.1441,1290.9327 C 1800.521,1291.3096 1801.7894,1291.618 1802.9628,1291.618 C 1806.2673,1291.618 1807.4961,1293.5878 1807.4961,1298.8854 C 1807.4961,1303.3157 1807.6777,1303.6951 1809.5186,1303.1109 C 1812.6646,1302.1124 1817.3946,1303.5598 1818.6498,1305.9052 C 1819.3606,1307.2333 1819.7477,1313.2975 1819.6825,1322.0812 C 1819.6213,1330.3183 1820.0064,1336.7503 1820.6132,1337.6253 C 1821.3928,1338.7495 1821.7736,1338.8094 1822.1556,1337.868 C 1822.7741,1336.3437 1826.4459,1336.2565 1828.4961,1337.7175 C 1829.6264,1338.5229 1829.1334,1338.6368 1826.4961,1338.1796 C 1823.1207,1337.5943 1823.074,1337.6274 1825.1849,1339.1092 C 1827.762,1340.9183 1835.4961,1341.8985 1835.4961,1340.416 C 1835.4961,1339.8594 1836.1642,1339.6604 1836.9808,1339.9738 C 1837.8572,1340.3101 1838.9021,1339.7278 1839.531,1338.5528 C 1840.117,1337.4578 1841.0112,1336.8183 1841.518,1337.1316 C 1842.5365,1337.761 1847.4961,1334.8428 1847.4961,1333.6141 C 1847.4961,1333.1885 1846.9336,1332.8611 1846.2461,1332.8866 C 1842.7656,1333.0159 1840.4961,1332.5152 1840.4961,1331.618 C 1840.4961,1331.068 1841.5514,1330.618 1842.8411,1330.618 C 1844.1309,1330.618 1846.0084,1329.7094 1847.0133,1328.599 C 1848.705,1326.7297 1849.1458,1324.4708 1849.8005,1314.3162 C 1849.9353,1312.2253 1850.6173,1310.1611 1851.3162,1309.7292 C 1852.8376,1308.7889 1853.8339,1298.7926 1852.9914,1292.9199 C 1852.5191,1289.628 1852.0474,1288.8529 1850.8062,1289.3293 C 1849.1042,1289.9823 1849.1094,1289.9599 1851.9217,1284.4429 C 1853.69,1280.9739 1853.7021,1280.5718 1852.1366,1277.2727 C 1851.2244,1275.3505 1850.2008,1272.3917 1849.8621,1270.6978 C 1849.2775,1267.7748 1849.8989,1267.0722 1852.7035,1267.4854 C 1853.0925,1267.5427 1853.6774,1266.1335 1854.0031,1264.3538 C 1854.7732,1260.1471 1855.0355,1213.5447 1854.4012,1193.618 C 1854.1299,1185.093 1854.2804,1172.6316 1854.7357,1165.9259 C 1855.7439,1151.0754 1854.4455,1129.8228 1852.4548,1128.5925 C 1851.3059,1127.8824 1851.3199,1127.3158 1852.5423,1125.0314 C 1853.3419,1123.5373 1853.8601,1121.5114 1853.6939,1120.5295 C 1853.1825,1117.508 1857.0733,1116.2273 1868.2008,1115.7542 C 1871.0341,1115.6338 1871.4816,1115.2124 1872.0621,1112.118 C 1872.7633,1108.3801 1873.1708,1108.2018 1880.1759,1108.5678 C 1884.2304,1108.7797 1884.3875,1108.6713 1885.4203,1104.9521 C 1886.0059,1102.8434 1886.4875,1100.1382 1886.4905,1098.9406 C 1886.4969,1096.4621 1890.8382,1092.618 1893.631,1092.618 C 1895.1338,1092.618 1895.4961,1091.8569 1895.4961,1088.6998 C 1895.4961,1083.2786 1896.3266,1081.618 1899.038,1081.618 C 1900.3183,1081.618 1902.5202,1081.1791 1903.931,1080.6428 C 1906.3584,1079.7198 1906.4967,1079.2771 1906.5071,1072.3928 C 1906.5132,1068.3916 1906.8,1063.4121 1907.1446,1061.3272 C 1907.743,1057.7058 1907.822,1057.6388 1908.9131,1059.8272 C 1909.7678,1061.5415 1910.9104,1062.118 1913.4537,1062.118 C 1916.3746,1062.118 1916.9634,1061.702 1917.6438,1059.1582 C 1918.179,1057.1568 1918.0404,1055.9476 1917.2157,1055.4236 C 1915.3388,1054.231 1910.0377,1054.4764 1908.6961,1055.818 C 1907.7628,1056.7513 1907.4961,1055.9391 1907.4961,1052.163 C 1907.4961,1047.5229 1907.577,1047.3813 1909.3248,1048.963 C 1910.5302,1050.0539 1912.9163,1050.618 1916.3248,1050.618 C 1921.1342,1050.618 1921.5066,1050.443 1921.6461,1048.118 C 1921.7286,1046.743 1921.8411,1045.0555 1921.8961,1044.368 C 1921.9679,1043.4702 1919.8828,1043.118 1914.4961,1043.118 L 1906.9961,1043.118 L 1906.6827,1039.868 C 1906.3835,1036.7646 1907.6858,1035.4979 1908.9961,1037.618 C 1909.8916,1039.0669 1917.1979,1038.8575 1917.7214,1037.368 C 1917.963,1036.6805 1917.8765,1034.993 1917.5293,1033.618 C 1916.9662,1031.3888 1916.3617,1031.1091 1911.947,1031.0355 L 1906.9961,1030.953 L 1906.69,1025.0772 C 1906.1533,1014.7751 1906.2853,1014.618 1915.48,1014.618 C 1922.4803,1014.618 1923.557,1014.8632 1924.5286,1016.6787 C 1926.0383,1019.4997 1929.7092,1018.8589 1930.6054,1015.618 C 1930.9856,1014.243 1931.3485,1007.268 1931.4117,1000.118 C 1931.5269,987.09321 1932.3597,983.08161 1934.5034,985.22531 C 1935.1759,985.89781 1935.671,992.13811 1935.795,1001.5042 C 1936.0098,1017.7271 1936.2782,1018.5689 1941.2461,1018.6027 C 1942.7817,1018.6131 1943.4961,1019.2191 1943.4961,1020.511 C 1943.4961,1022.4926 1941.6554,1023.618 1938.4143,1023.618 C 1936.4724,1023.618 1936.0936,1024.4987 1936.4785,1028.118 C 1936.8072,1031.2078 1938.5728,1032.7473 1941.4101,1032.4181 C 1943.4172,1032.1852 1943.9961,1032.5586 1943.9961,1034.0864 C 1943.9961,1035.6036 1943.022,1036.2474 1939.7461,1036.8952 C 1936.2305,1037.5905 1935.4961,1038.1308 1935.4961,1040.0219 C 1935.4961,1043.4806 1938.7969,1046.0626 1941.4224,1044.6575 C 1943.2469,1043.681 1943.6455,1043.8808 1944.5337,1046.2168 C 1945.0939,1047.6904 1946.6647,1050.2181 1948.0242,1051.8338 C 1951.2329,1055.6471 1951.1508,1057.4098 1947.7461,1057.8016 C 1944.2126,1058.2082 1943.487,1061.9099 1946.3419,1064.9659 C 1947.6782,1066.3964 1948.5888,1069.2258 1949.0575,1073.4041 C 1949.5371,1077.6799 1950.2882,1079.9716 1951.4062,1080.5699 C 1952.3101,1081.0537 1956.6244,1081.9467 1960.9935,1082.5544 C 1965.3626,1083.1621 1969.4006,1084.1237 1969.9667,1084.6914 C 1970.544,1085.2703 1970.8999,1089.3236 1970.777,1093.9208 C 1970.4603,1105.7699 1970.6556,1106.2649 1975.963,1107.0608 C 1980.8343,1107.7913 1981.4994,1108.3991 1982.4354,1112.9755 C 1983.0514,1115.9876 1983.1016,1116.0084 1990.0258,1116.125 C 1993.8595,1116.1896 1997.7621,1116.5918 1998.6982,1117.0188 C 1999.6344,1117.4459 2000.957,1117.4512 2001.6374,1117.0307 C 2003.5607,1115.842 2025.7896,1115.6167 2027.1813,1116.7717 C 2027.8516,1117.328 2029.2913,1117.5004 2030.3806,1117.1547 C 2033.1578,1116.2732 2066.5827,1115.9491 2067.1077,1116.7985 C 2067.3444,1117.1816 2068.5412,1117.2346 2069.7671,1116.9162 C 2070.9931,1116.5978 2073.3903,1116.2442 2075.0944,1116.1304 C 2076.7984,1116.0167 2078.7149,1115.6008 2079.3533,1115.2063 C 2079.9917,1114.8117 2081.2975,1114.7223 2082.255,1115.0075 C 2085.688,1116.0301 2098.181,1115.8838 2108.3308,1114.7021 C 2117.3097,1113.6568 2118.9726,1113.7002 2121.0061,1115.0326 C 2122.2934,1115.8761 2123.4928,1116.1646 2123.6714,1115.6736 C 2123.85,1115.1827 2129.1711,1114.4672 2135.4961,1114.0837 C 2141.8211,1113.7002 2147.2654,1113.2291 2147.5946,1113.0368 C 2147.9238,1112.8445 2152.9624,1112.2353 2158.7915,1111.683 C 2165.9742,1111.0024 2170.6108,1110.0244 2173.1782,1108.6484 C 2175.2618,1107.5317 2177.6127,1106.618 2178.4026,1106.618 C 2179.1924,1106.618 2180.6332,1105.8989 2181.6043,1105.02 C 2182.5755,1104.1412 2183.8484,1103.7177 2184.4331,1104.0791 C 2185.1815,1104.5416 2185.4961,1255.496 2185.4961,1614.177 L 2185.4961,2123.618 L 889.49603,2123.618 L -406.50393,2123.618 L -406.50393,1721.7847 z M 1137.3793,1371.3803 C 1137.5259,1366.2995 1137.9834,1361.687 1138.396,1361.1303 C 1138.8085,1360.5735 1139.2132,1358.0257 1139.2951,1355.4684 C 1139.4287,1351.2983 1139.2405,1350.8721 1137.4701,1351.3351 C 1136.3844,1351.619 1135.4694,1352.5863 1135.4367,1353.4846 C 1134.6449,1375.2441 1134.7313,1380.618 1135.8733,1380.618 C 1136.7507,1380.618 1137.1907,1377.919 1137.3793,1371.3803 z M 1614.4961,1356.618 C 1614.4961,1356.068 1613.8211,1355.618 1612.9961,1355.618 C 1612.1711,1355.618 1611.4961,1356.068 1611.4961,1356.618 C 1611.4961,1357.168 1612.1711,1357.618 1612.9961,1357.618 C 1613.8211,1357.618 1614.4961,1357.168 1614.4961,1356.618 z M 1645.6371,1354.618 C 1648.473,1354.618 1650.0308,1353.2922 1649.0533,1351.7105 C 1648.7355,1351.1964 1646.3383,1351.4919 1643.5227,1352.3923 C 1639.5257,1353.6705 1638.774,1354.2479 1639.6821,1355.3422 C 1640.4655,1356.2861 1641.1305,1356.3836 1641.8537,1355.6604 C 1642.427,1355.0871 1644.1295,1354.618 1645.6371,1354.618 z M -247.50393,1341.118 C -247.50393,1340.293 -248.23403,1339.618 -249.12633,1339.618 C -250.45513,1339.618 -250.52353,1339.8895 -249.50393,1341.118 C -247.93643,1343.0067 -247.50393,1343.0067 -247.50393,1341.118 z M -387.25393,1338.2013 C -387.11643,1337.6972 -387.56643,1337.0972 -388.25393,1336.868 C -388.94143,1336.6388 -389.50393,1337.2013 -389.50393,1338.118 C -389.50393,1339.8114 -387.71113,1339.8778 -387.25393,1338.2013 z M -253.50393,1335.618 C -253.50393,1335.068 -253.95393,1334.618 -254.50393,1334.618 C -255.05393,1334.618 -255.50393,1335.068 -255.50393,1335.618 C -255.50393,1336.168 -255.05393,1336.618 -254.50393,1336.618 C -253.95393,1336.618 -253.50393,1336.168 -253.50393,1335.618 z M -264.00393,1323.118 C -264.00393,1322.568 -265.69143,1321.9783 -267.75393,1321.8076 C -271.27063,1321.5166 -272.43303,1322.3555 -270.78983,1323.9987 C -269.74843,1325.0401 -264.00393,1324.2946 -264.00393,1323.118 z M -247.89763,1320.7936 C -247.79243,1318.7002 -248.20283,1317.618 -249.10193,1317.618 C -250.66113,1317.618 -252.03633,1321.9475 -251.00643,1323.614 C -249.77813,1325.6014 -248.06113,1324.0436 -247.89763,1320.7936 z M -257.51453,1322.1307 C -256.83563,1321.3127 -256.56493,1319.9015 -256.91293,1318.9946 C -257.49233,1317.4847 -257.71243,1317.4967 -259.52483,1319.1369 C -260.61333,1320.122 -261.50393,1321.5332 -261.50393,1322.273 C -261.50393,1324.0722 -259.05323,1323.9848 -257.51453,1322.1307 z M -242.50393,1320.559 C -242.50393,1320.0414 -243.17893,1319.618 -244.00393,1319.618 C -245.55033,1319.618 -245.99063,1320.798 -244.86443,1321.9241 C -244.06553,1322.7231 -242.50393,1321.82 -242.50393,1320.559 z M -265.77233,1313.618 C -265.43633,1313.618 -264.33663,1314.3644 -263.32863,1315.2767 C -260.75913,1317.6021 -256.50393,1315.6828 -256.50393,1312.1985 C -256.50393,1309.0137 -257.89893,1308.2149 -260.73323,1309.7767 C -261.98213,1310.4648 -263.79143,1310.9073 -264.75393,1310.76 C -265.71643,1310.6128 -266.50393,1310.9393 -266.50393,1311.4856 C -266.50393,1312.0319 -267.46483,1312.6227 -268.63933,1312.7984 C -269.81383,1312.9742 -271.44303,1314.1294 -272.25973,1315.3656 C -273.67203,1317.5032 -273.57963,1317.6831 -270.37433,1319.0379 L -267.00393,1320.4625 L -266.69353,1317.0402 C -266.52283,1315.158 -266.10833,1313.618 -265.77233,1313.618 z M -119.50393,1318.677 C -119.50393,1318.1595 -119.95393,1317.4579 -120.50393,1317.118 C -121.05393,1316.7781 -121.50393,1317.2015 -121.50393,1318.059 C -121.50393,1318.9164 -121.05393,1319.618 -120.50393,1319.618 C -119.95393,1319.618 -119.50393,1319.1946 -119.50393,1318.677 z M -119.50393,1311.618 C -119.50393,1310.518 -119.95393,1309.618 -120.50393,1309.618 C -121.05393,1309.618 -121.50393,1310.518 -121.50393,1311.618 C -121.50393,1312.718 -121.05393,1313.618 -120.50393,1313.618 C -119.95393,1313.618 -119.50393,1312.718 -119.50393,1311.618 z M -249.25393,1311.1043 C -249.62233,1309.6509 -251.76623,1309.9049 -252.28573,1311.4635 C -252.57783,1312.3397 -252.08373,1312.6837 -250.86913,1312.4498 C -249.84323,1312.2522 -249.11643,1311.6468 -249.25393,1311.1043 z M -119.08173,1302.072 C -118.37473,1299.2551 -119.13163,1297.2699 -120.57303,1298.1607 C -121.76293,1298.8961 -121.79773,1304.618 -120.61233,1304.618 C -120.12193,1304.618 -119.43323,1303.4723 -119.08173,1302.072 z M 2005.4961,1261.618 C 2005.4961,1261.068 2004.8211,1260.618 2003.9961,1260.618 C 2003.1711,1260.618 2002.4961,1261.068 2002.4961,1261.618 C 2002.4961,1262.168 2003.1711,1262.618 2003.9961,1262.618 C 2004.8211,1262.618 2005.4961,1262.168 2005.4961,1261.618 z M 1996.6628,1257.7226 C 1996.8461,1257.2302 2001.9461,1256.5684 2007.9961,1256.2521 C 2014.0461,1255.9357 2022.1461,1254.979 2025.9961,1254.126 C 2029.8461,1253.273 2037.9461,1252.4016 2043.9961,1252.1896 C 2050.0461,1251.9776 2055.6949,1251.5232 2056.549,1251.1797 C 2057.4031,1250.8363 2058.8901,1249.221 2059.8534,1247.5902 C 2061.4245,1244.9306 2061.6457,1240.4877 2062.0005,1204.4616 C 2062.3109,1172.9358 2062.6756,1164.1206 2063.696,1163.4733 C 2065.055,1162.6113 2067.9913,1162.4242 2083.1582,1162.2333 C 2088.1973,1162.1699 2092.6788,1161.7615 2093.117,1161.3258 C 2093.5552,1160.8901 2093.8086,1156.604 2093.68,1151.8011 C 2093.5222,1145.9073 2093.8607,1142.5519 2094.7212,1141.4796 C 2095.5901,1140.3966 2099.1434,1139.5213 2105.8798,1138.7307 C 2111.3158,1138.0927 2116.1111,1137.356 2116.5359,1137.0934 C 2118.0389,1136.1645 2116.2904,1132.8452 2113.6613,1131.6365 C 2112.1148,1130.9255 2107.1137,1130.4466 2101.7461,1130.4955 C 2094.2057,1130.5642 2092.4961,1130.3061 2092.4961,1129.0989 C 2092.4961,1127.1552 2091.8505,1127.2295 2088.5953,1129.5474 C 2086.8383,1130.7985 2085.3945,1131.1732 2084.4886,1130.6134 C 2083.7203,1130.1385 2082.6926,1129.9966 2082.2048,1130.298 C 2081.42,1130.7831 2076.8862,1130.7925 2055.4961,1130.3536 C 2052.4711,1130.2915 2048.4211,1130.3079 2046.4961,1130.3899 C 2044.5711,1130.4719 2040.7461,1130.5401 2037.9961,1130.5415 C 2035.2461,1130.5429 2030.0711,1130.6218 2026.4961,1130.717 C 2022.9211,1130.8121 2017.9711,1130.8217 2015.4961,1130.7384 C 2009.3065,1130.53 1994.0704,1131.3065 1987.8835,1132.1457 L 1982.7709,1132.8392 L 1982.1335,1140.3795 C 1981.3166,1150.0435 1981.2963,1250.3688 1982.1104,1254.4394 C 1982.6407,1257.0909 1983.2218,1257.5636 1986.3604,1257.8963 C 1993.4969,1258.6529 1996.3342,1258.6051 1996.6628,1257.7226 z M 1917.3243,1071.2462 C 1917.7493,1067.5268 1916.3403,1066.0958 1913.6636,1067.5284 C 1911.9058,1068.4691 1911.3403,1071.518 1912.3821,1074.4376 C 1912.4448,1074.6133 1913.5086,1074.6133 1914.7461,1074.4376 C 1916.3847,1074.2048 1917.0853,1073.3376 1917.3243,1071.2462 z M 1921.4961,1059.677 C 1921.4961,1058.0595 1921.0461,1056.4579 1920.4961,1056.118 C 1919.901,1055.7502 1919.4961,1056.941 1919.4961,1059.059 C 1919.4961,1061.0164 1919.9461,1062.618 1920.4961,1062.618 C 1921.0461,1062.618 1921.4961,1061.2946 1921.4961,1059.677 z M 1928.6674,1056.963 C 1931.1611,1054.7062 1930.9674,1051.9745 1928.2633,1051.2674 C 1925.3117,1050.4955 1924.6059,1051.4455 1925.2169,1055.368 C 1925.796,1059.0858 1926.1439,1059.2467 1928.6674,1056.963 z M 1940.4961,1053.011 C 1940.4961,1052.2449 1939.5961,1051.618 1938.4961,1051.618 C 1936.6135,1051.618 1935.777,1053.5655 1937.0939,1054.8824 C 1938.067,1055.8556 1940.4961,1054.5194 1940.4961,1053.011 z M 1930.2961,1043.418 C 1930.9561,1042.758 1931.4961,1041.183 1931.4961,1039.918 C 1931.4961,1037.6412 1931.2952,1037.552 1925.2994,1037.1669 C 1924.3662,1037.107 1923.2787,1036.7339 1922.8827,1036.338 C 1921.6201,1035.0753 1919.4961,1035.5645 1919.4961,1037.118 C 1919.4961,1037.9591 1920.3885,1038.618 1921.5275,1038.618 C 1923.3652,1038.618 1923.8313,1039.2446 1925.0606,1043.368 C 1925.5347,1044.958 1928.7256,1044.9885 1930.2961,1043.418 z M 1929.2761,1031.368 C 1930.2755,1030.149 1930.8432,1027.3856 1930.6113,1024.868 C 1930.5471,1024.1714 1929.168,1023.618 1927.4961,1023.618 C 1924.6845,1023.618 1924.4961,1023.8587 1924.4961,1027.4513 C 1924.4961,1029.5597 1924.7961,1031.5847 1925.1628,1031.9513 C 1926.2172,1033.0058 1928.159,1032.7304 1929.2761,1031.368 z M 1922.4961,1024.0292 C 1922.4961,1018.6253 1920.8157,1017.8434 1912.2461,1019.2599 C 1909.1259,1019.7756 1908.4961,1020.283 1908.4961,1022.2811 C 1908.4961,1025.2434 1911.2434,1026.4521 1917.7461,1026.3508 C 1921.9819,1026.2849 1922.4961,1026.0336 1922.4961,1024.0292 z M 56.496072,998.11801 C 56.496072,997.35791 56.046072,996.45791 55.496072,996.11801 C 54.926672,995.76611 54.496072,996.62731 54.496072,998.11801 C 54.496072,999.60871 54.926672,1000.4699 55.496072,1000.118 C 56.046072,999.77811 56.496072,998.87811 56.496072,998.11801 z M 66.496072,994.50001 C 66.496072,993.95001 66.046072,993.77811 65.496072,994.11801 C 64.946072,994.45791 64.496072,995.18601 64.496072,995.73601 C 64.496072,996.28601 64.946072,996.45791 65.496072,996.11801 C 66.046072,995.77811 66.496072,995.05001 66.496072,994.50001 z M 69.805872,979.18221 C 70.949672,978.31501 71.225672,977.56891 70.555872,977.15501 C 68.945172,976.15951 69.288772,973.49011 71.208272,972.08651 C 72.667872,971.01921 72.720472,970.59331 71.564972,969.20101 C 70.314272,967.69401 70.058572,967.70401 68.262372,969.32951 C 66.402272,971.01281 66.256772,971.01131 65.001772,969.29491 C 64.112972,968.07941 63.463672,967.86151 62.994072,968.62121 C 62.612472,969.23871 63.098572,970.62631 64.074472,971.70461 C 65.434672,973.20771 65.574272,973.93981 64.672472,974.84161 C 63.115372,976.39871 63.187472,977.16661 65.067472,979.04661 C 66.960772,980.93981 67.468572,980.95441 69.805872,979.18221 z M 76.496072,978.11801 C 76.496072,977.29301 75.821072,976.61801 74.996072,976.61801 C 74.171072,976.61801 73.496072,977.29301 73.496072,978.11801 C 73.496072,978.94301 74.171072,979.61801 74.996072,979.61801 C 75.821072,979.61801 76.496072,978.94301 76.496072,978.11801 z M 86.996072,970.61801 C 86.193672,969.31961 83.496072,969.31961 83.496072,970.61801 C 83.496072,971.16801 84.422672,971.61801 85.555072,971.61801 C 86.687572,971.61801 87.335972,971.16801 86.996072,970.61801 z M 73.054972,965.52261 C 74.240372,963.60471 71.345872,959.61801 68.768072,959.61801 C 67.429372,959.61801 66.649872,960.05791 66.996072,960.61801 C 67.335972,961.16801 67.137572,961.61801 66.555072,961.61801 C 64.876672,961.61801 65.800372,963.99921 67.996072,965.33261 C 70.515972,966.86291 72.187872,966.92571 73.054972,965.52261 z M 72.168772,957.39041 C 76.820272,957.91471 78.483572,956.91581 78.450372,953.61801 C 78.438572,952.44381 78.213872,952.49811 77.415972,953.86801 C 76.125772,956.08311 73.904172,956.12391 73.069172,953.94801 C 72.271072,951.86801 74.282872,950.52631 77.128672,951.24051 C 78.310772,951.53721 79.548872,951.34151 79.880072,950.80561 C 80.211272,950.26971 79.247872,949.52321 77.739172,949.14671 C 76.230472,948.77011 74.204972,947.74911 73.237972,946.87771 C 71.596572,945.39851 71.590272,945.17131 73.142972,943.45561 C 74.458372,942.00211 74.512372,941.62071 73.401072,941.63151 C 70.268572,941.66201 67.546372,942.89181 68.199272,943.98161 C 68.573672,944.60661 68.107772,944.49131 67.163872,943.72541 C 64.784572,941.79481 64.314072,942.62751 63.815372,949.65241 C 63.377972,955.81361 64.778972,959.73511 66.723072,957.79101 C 67.224472,957.28961 69.675072,957.10931 72.168772,957.39041 z M 80.996072,943.61791 C 80.204172,942.33651 79.496072,942.33651 79.496072,943.61791 C 79.496072,944.16791 79.972672,944.61791 80.555072,944.61791 C 81.137572,944.61791 81.335972,944.16791 80.996072,943.61791 z M 86.037172,938.55141 C 86.957572,937.06221 85.890472,936.25261 83.975772,936.98731 C 83.092272,937.32641 82.649372,938.05701 82.991672,938.61081 C 83.802272,939.92241 85.206772,939.89501 86.037172,938.55141 z M 67.257872,931.60801 C 66.555372,930.48331 65.837472,930.09381 65.627472,930.72371 C 65.421172,931.34271 65.869672,932.24031 66.624172,932.71821 C 68.593472,933.96571 68.658772,933.85131 67.257872,931.60801 z M 72.496072,928.06031 C 72.496072,925.90991 70.477072,925.29011 67.923772,926.65661 C 65.774772,927.80671 65.703172,928.04881 67.190172,929.13621 C 69.170772,930.58441 72.496072,929.91011 72.496072,928.06031 z M 78.496072,928.61791 C 79.709072,927.83401 79.565472,927.64561 77.746072,927.63321 C 76.508572,927.62481 75.496072,928.06791 75.496072,928.61791 C 75.496072,929.87081 76.557272,929.87081 78.496072,928.61791 z M 1622.4961,1350.0738 C 1622.4961,1348.5398 1622.8336,1347.6919 1623.2461,1348.1897 C 1623.6586,1348.6875 1624.3549,1349.3647 1624.7934,1349.6946 C 1625.232,1350.0246 1624.8945,1350.8724 1624.0434,1351.5787 C 1622.7099,1352.6855 1622.4961,1352.4775 1622.4961,1350.0738 z M 1835.4961,1331.559 C 1835.4961,1330.9765 1835.0461,1330.7781 1834.4961,1331.118 C 1833.9461,1331.4579 1833.4961,1331.3076 1833.4961,1330.784 C 1833.4961,1330.2604 1834.1711,1329.573 1834.9961,1329.2564 C 1836.0164,1328.8649 1836.4961,1329.3103 1836.4961,1330.6494 C 1836.4961,1331.7321 1836.2711,1332.618 1835.9961,1332.618 C 1835.7211,1332.618 1835.4961,1332.1414 1835.4961,1331.559 z M 515.49467,1328.368 C 515.49397,1328.2305 514.82557,1324.3238 514.00947,1319.6865 C 512.51457,1311.1915 512.56117,1309.9222 514.32837,1311.0144 C 515.59777,1311.7989 518.80947,1326.3019 518.00287,1327.6071 C 517.46317,1328.4802 515.49857,1329.0763 515.49467,1328.368 z M 1822.0489,1318.7034 C 1821.7269,1318.1824 1821.8897,1317.4928 1822.4107,1317.1708 C 1822.9317,1316.8488 1823.6213,1317.0116 1823.9433,1317.5326 C 1824.2653,1318.0536 1824.1025,1318.7432 1823.5815,1319.0652 C 1823.0605,1319.3872 1822.3709,1319.2244 1822.0489,1318.7034 z M 1822.0939,1312.8824 C 1821.0037,1311.7922 1821.4724,1310.7011 1823.4961,1309.618 C 1825.1747,1308.7196 1825.4961,1308.8575 1825.4961,1310.4758 C 1825.4961,1312.4031 1823.2226,1314.0112 1822.0939,1312.8824 z M -315.50393,1303.059 C -315.50393,1302.2015 -315.05393,1301.7781 -314.50393,1302.118 C -313.21003,1302.9177 -313.21003,1304.618 -314.50393,1304.618 C -315.05393,1304.618 -315.50393,1303.9164 -315.50393,1303.059 z M -293.50393,1301.677 C -293.50393,1301.1595 -293.05393,1300.4579 -292.50393,1300.118 C -291.95393,1299.7781 -291.50393,1300.2015 -291.50393,1301.059 C -291.50393,1301.9164 -291.95393,1302.618 -292.50393,1302.618 C -293.05393,1302.618 -293.50393,1302.1946 -293.50393,1301.677 z M -298.47213,1296.4032 C -298.44113,1295.1486 -295.50393,1290.6382 -295.50393,1291.8451 C -295.50393,1292.1802 -295.24403,1293.1317 -294.92633,1293.9595 C -294.57683,1294.8703 -295.16913,1295.9037 -296.42633,1296.5765 C -298.02993,1297.4347 -298.49663,1297.3951 -298.47213,1296.4032 z M -308.47213,1290.2811 C -308.49183,1289.1428 -307.36303,1288.0136 -305.50393,1287.3119 C -303.85393,1286.6891 -302.50393,1285.8282 -302.50393,1285.3988 C -302.50393,1284.9693 -301.82893,1284.618 -301.00393,1284.618 C -298.66603,1284.618 -299.24223,1287.3004 -301.75393,1288.1095 C -302.99143,1288.5082 -304.39203,1288.7688 -304.86633,1288.6887 C -305.34063,1288.6086 -306.33883,1289.3474 -307.08453,1290.3305 C -308.38233,1292.0416 -308.44173,1292.0395 -308.47213,1290.2811 z M -272.50393,1283.8041 C -272.50393,1283.28 -271.36113,1282.6327 -269.96433,1282.3657 C -268.36153,1282.0593 -267.56043,1282.293 -267.79263,1282.9991 C -268.24913,1284.3871 -272.50393,1285.1141 -272.50393,1283.8041 z M -307.50393,1281.177 C -307.50393,1280.3845 -307.10113,1279.4871 -306.60873,1279.1828 C -305.57933,1278.5465 -304.33803,1281.1188 -305.23953,1282.0202 C -306.31253,1283.0933 -307.50393,1282.6496 -307.50393,1281.177 z M -298.50393,1281.0447 C -298.50393,1280.1134 -297.82353,1279.6033 -296.83683,1279.7947 C -294.32803,1280.2812 -293.98353,1282.618 -296.42063,1282.618 C -297.64893,1282.618 -298.50393,1281.9723 -298.50393,1281.0447 z M -245.58513,1273.368 C -245.62983,1273.2305 -245.75723,1271.8805 -245.86823,1270.368 C -246.12733,1266.8359 -243.28573,1266.6068 -241.72423,1270.0339 C -240.83763,1271.9797 -240.91963,1272.5635 -242.14543,1273.0339 C -243.71933,1273.6379 -245.44303,1273.8053 -245.58513,1273.368 z M 852.74823,1244.118 C 852.73713,1241.918 852.93283,1240.9003 853.18313,1241.8563 C 853.43343,1242.8124 853.44253,1244.6124 853.20333,1245.8563 C 852.96413,1247.1003 852.75933,1246.318 852.74823,1244.118 z M 467.87247,1237.6571 C 468.23757,1233.2786 468.79177,1218.9911 469.10397,1205.9071 C 469.72597,1179.8386 471.47297,1171.4069 471.64437,1193.6458 C 471.77277,1210.3074 471.74307,1214.6939 471.43947,1223.868 C 471.30757,1227.8555 471.52667,1233.7293 471.92637,1236.9209 C 472.68807,1243.002 471.72657,1245.618 468.72987,1245.618 C 467.43987,1245.618 467.30947,1244.4073 467.87247,1237.6571 z M -228.42503,1182.2013 C -228.46843,1181.1472 -228.23203,1180.5565 -227.89973,1180.8888 C -227.56743,1181.2211 -227.53193,1182.0836 -227.82083,1182.8055 C -228.14003,1183.6032 -228.37703,1183.3663 -228.42503,1182.2013 z M 330.49607,1125.559 C 330.49607,1123.7743 330.91267,1122.7574 331.49607,1123.118 C 332.79807,1123.9227 332.79807,1128.618 331.49607,1128.618 C 330.94607,1128.618 330.49607,1127.2414 330.49607,1125.559 z M 51.496072,972.45131 C 51.496072,969.60971 51.661172,967.47221 51.862972,967.70131 C 52.714272,968.66791 53.174772,977.61801 52.373272,977.61801 C 51.890772,977.61801 51.496072,975.29301 51.496072,972.45131 z M 51.225272,965.01381 C 50.824172,964.61281 50.548672,961.77221 50.612972,958.70131 L 50.729872,953.11801 L 51.632372,958.55991 C 52.576872,964.25531 52.451672,966.24031 51.225272,965.01381 z M 100.65397,961.61801 C 100.65397,960.24301 100.88097,959.68051 101.15837,960.36801 C 101.43577,961.05551 101.43577,962.18051 101.15837,962.86801 C 100.88097,963.55551 100.65397,962.99301 100.65397,961.61801 z M 100.49607,956.17701 C 100.49607,954.42051 101.09617,954.16191 101.95337,955.54891 C 102.26977,956.06091 102.07137,956.76251 101.51237,957.10791 C 100.95337,957.45341 100.49607,957.03451 100.49607,956.17701 z M 49.366972,942.86791 C 49.295972,940.80541 49.110872,937.20541 48.955672,934.86791 C 48.800472,932.53041 49.083572,930.61791 49.584772,930.61791 C 50.085972,930.61791 50.502172,933.20541 50.509672,936.36791 C 50.517272,939.53041 50.794672,943.13041 51.126372,944.36791 C 51.488172,945.71791 51.282672,946.61791 50.612672,946.61791 C 49.998572,946.61791 49.437972,944.93041 49.366972,942.86791 z M 53.511372,922.92691 C 53.522472,919.45331 53.795872,918.53441 54.496072,919.61791 C 55.767672,921.58561 55.767672,926.33201 54.496072,927.11791 C 53.881672,927.49761 53.501972,925.88171 53.511372,922.92691 z M 96.574972,924.20121 C 96.531572,923.14711 96.767972,922.55641 97.100272,922.88871 C 97.432572,923.22101 97.468072,924.08351 97.179172,924.80541 C 96.859972,925.60311 96.622972,925.36621 96.574972,924.20121 z M 1162.4961,601.11804 C 1162.4961,598.3263 1164.9186,597.67072 1165.8891,600.19983 C 1166.9033,602.84281 1166.5874,603.61804 1164.4961,603.61804 C 1163.0294,603.61804 1162.4961,602.95137 1162.4961,601.11804 z "
     style="fill:#2b1100" />
</svg>
